<svg width="352" height="110" viewBox="0 0 352 110" fill="none" xmlns="http://www.w3.org/2000/svg">
<rect width="352" height="110" fill="white"/>
<path d="M74.144 87H60.704V36.6C60.704 28.152 64.672 23.928 72.608 23.928H79.712C84.384 23.928 87.712 25.464 89.696 28.536C91.552 25.464 94.88 23.928 99.68 23.928H106.784C114.72 23.928 118.688 28.152 118.688 36.6V87H105.248V35.448C105.248 34.936 105.056 34.488 104.672 34.104C104.352 33.72 103.936 33.528 103.424 33.528H98.24C97.728 33.528 97.28 33.72 96.896 34.104C96.576 34.488 96.416 34.936 96.416 35.448V87H82.976V35.448C82.976 34.936 82.784 34.488 82.4 34.104C82.08 33.72 81.664 33.528 81.152 33.528H75.968C75.456 33.528 75.008 33.72 74.624 34.104C74.304 34.488 74.144 34.936 74.144 35.448V87ZM151.253 40.152H162.101V87H151.253V83.544C149.269 86.488 145.973 87.96 141.365 87.96H139.349C131.413 87.96 127.445 83.736 127.445 75.288V51.864C127.445 43.416 131.413 39.192 139.349 39.192H141.365C145.973 39.192 149.269 40.664 151.253 43.608V40.152ZM149.237 76.824V50.328C149.237 49.816 149.045 49.368 148.661 48.984C148.341 48.6 147.925 48.408 147.413 48.408H142.133C141.621 48.408 141.173 48.6 140.789 48.984C140.469 49.368 140.309 49.816 140.309 50.328V76.824C140.309 77.336 140.469 77.784 140.789 78.168C141.173 78.552 141.621 78.744 142.133 78.744H147.413C147.925 78.744 148.341 78.552 148.661 78.168C149.045 77.784 149.237 77.336 149.237 76.824ZM183.715 87H170.851V40.152H182.563V42.552C184.547 40.312 187.555 39.192 191.587 39.192H193.603C201.539 39.192 205.507 43.416 205.507 51.864V87H192.643V50.328C192.643 49.816 192.451 49.368 192.067 48.984C191.747 48.6 191.331 48.408 190.819 48.408H185.539C185.027 48.408 184.579 48.6 184.195 48.984C183.875 49.368 183.715 49.816 183.715 50.328V87ZM236.05 40.152H248.914V90.552C248.914 99 244.946 103.224 237.01 103.224H227.41C219.474 103.224 215.506 99 215.506 90.552V89.016H227.986V92.088C227.986 92.6 228.146 93.048 228.466 93.432C228.85 93.816 229.298 94.008 229.81 94.008H234.226C234.738 94.008 235.154 93.816 235.474 93.432C235.858 93.048 236.05 92.6 236.05 92.088V82.584C234.13 84.12 231.506 84.888 228.178 84.888H226.162C218.226 84.888 214.258 80.664 214.258 72.216V40.152H227.122V73.752C227.122 74.264 227.282 74.712 227.602 75.096C227.986 75.48 228.434 75.672 228.946 75.672H234.226C234.738 75.672 235.154 75.48 235.474 75.096C235.858 74.712 236.05 74.264 236.05 73.752V40.152ZM279.456 40.152H292.32V87H280.608V84.6C278.624 86.84 275.616 87.96 271.584 87.96H269.568C261.632 87.96 257.664 83.736 257.664 75.288V40.152H270.528V76.824C270.528 77.336 270.688 77.784 271.008 78.168C271.392 78.552 271.84 78.744 272.352 78.744H277.632C278.144 78.744 278.56 78.552 278.88 78.168C279.264 77.784 279.456 77.336 279.456 76.824V40.152Z" fill="black"/>
</svg>
